<?xml version="1.0" encoding="UTF-8"?>
<svg version="1.1" xmlns="http://www.w3.org/2000/svg" width="1200" height="1166">
<path d="M0 0 C339.57 0 679.14 0 1029 0 C1029 123.09 1029 246.18 1029 373 C989.73679015 412.26320985 989.73679015 412.26320985 968.70671463 413.3734169 C967.26114655 413.2993013 965.81656843 413.20157467 964.37432861 413.07867432 C962.70871922 412.9859045 961.0429948 412.89518213 959.37717438 412.80628204 C958.53965417 412.75476895 957.70213396 412.70325586 956.83923435 412.65018177 C952.42542962 412.41941353 948.00990742 412.40356889 943.59100342 412.36126709 C935.28573083 412.25092705 926.99826325 411.95799648 918.70071673 411.59268546 C909.22982178 411.18510527 899.75790287 410.99112934 890.2803731 410.8116498 C870.84361567 410.43895462 851.4232536 409.80916282 832 409 C835.76227821 404.51108782 839.63721868 400.21654944 843.78662109 396.08398438 C844.33060043 395.53825272 844.87457977 394.99252106 845.43504333 394.43025208 C847.21202265 392.64891584 848.99258248 390.87121093 850.7734375 389.09375 C852.02379691 387.84271568 853.27400796 386.59153306 854.52407837 385.34020996 C857.1365013 382.72631831 859.75070966 380.11422927 862.36621094 377.50341797 C865.7003186 374.17500113 869.0299238 370.84212219 872.35819054 367.50786591 C874.937037 364.92538643 877.51828459 362.34531747 880.1002388 359.76594543 C881.32803133 358.53881492 882.55509556 357.31095522 883.78138351 356.08232117 C899.56549533 340.27464141 899.56549533 340.27464141 905.84320068 336.11697388 C918.25175749 327.83571545 927.22453275 318.50270986 930.70425606 303.61096001 C933.23871772 290.65729331 934.10479858 277.6199867 934.40243721 264.45147514 C934.56209387 257.41383957 934.87596451 250.4981945 935.71020508 243.50561523 C939.55254477 210.70867259 932.19012392 184.72679972 911.79489312 158.68733458 C906.36238554 151.97517122 900.61498252 145.58668889 894.69384766 139.30395508 C893.36735835 137.89362704 893.36735835 137.89362704 892.01407127 136.45480752 C857.89617773 100.72670684 824.40599834 90.40097016 775.73657227 89.2734375 C754.29420991 88.78088058 732.89293717 89.21595341 711.46089302 89.9216529 C699.18482272 90.31902439 686.91788954 90.50856523 674.63566399 90.56304932 C673.7532901 90.56708195 672.87091622 90.57111458 671.96180374 90.57526942 C667.47729467 90.59496596 662.9927796 90.61176608 658.50825524 90.62753892 C627.02480372 90.74424555 595.55943968 91.25559401 564.08520508 92.00390625 C533.60970846 92.72787729 503.14168068 93.23567056 472.65844727 93.48046875 C471.24176345 93.49194591 471.24176345 93.49194591 469.79645977 93.50365493 C461.25093843 93.57276417 452.70540374 93.64011954 444.15985617 93.70590341 C410.56789612 93.96681374 376.97740073 94.38012104 343.38761995 94.83914673 C340.74819761 94.87507771 338.10876872 94.91049097 335.46933809 94.94580746 C315.28285801 95.21707741 295.09845805 95.53416224 274.91540337 95.9988749 C273.35809755 96.03465275 271.80079063 96.07038271 270.24348259 96.10606384 C269.48047244 96.12355489 268.71746229 96.14104594 267.93133061 96.15906702 C262.6525313 96.27711309 257.37377942 96.36517252 252.0941925 96.43904114 C245.13052775 96.5367699 238.1705397 96.69459691 231.20908176 96.89508176 C228.69363598 96.95840178 226.17760636 97.0022135 223.66146142 97.02438426 C207.52073339 96.89610663 207.52073339 96.89610663 194.16289139 104.88404369 C192.33825294 106.86136031 190.68189627 108.89299085 189 111 C187.69390107 112.30775075 186.37340364 113.60178823 185.02287292 114.86360168 C183.90744708 115.97916966 182.79458199 117.09730409 181.68432617 118.21801758 C181.06129608 118.84250793 180.43826599 119.46699829 179.7963562 120.1104126 C178.47386024 121.43664953 177.15251684 122.76403672 175.83229637 124.09253883 C173.73543483 126.20242247 171.63523866 128.30893914 169.53425598 130.41471863 C165.08247196 134.87779518 160.6346887 139.34484509 156.1875 143.8125 C151.0090913 149.01463726 145.82898657 154.21506327 140.6446476 159.41129112 C138.58874563 161.47361146 136.53590778 163.53894743 134.48320007 165.60444641 C133.21185003 166.87943181 131.94035778 168.15427544 130.66870117 169.42895508 C130.11008896 169.99273361 129.55147675 170.55651215 128.97593689 171.13737488 C128.43680664 171.67657562 127.89767639 172.21577637 127.34220886 172.77131653 C126.84256801 173.27339811 126.34292716 173.77547969 125.82814568 174.29277587 C124 176 124 176 121.95876867 177.51932645 C117.77551177 180.65652062 117.77551177 180.65652062 115.25914925 185.10426825 C114.97766524 187.53704032 114.94390472 189.85925954 115 192.307724 C114.98908105 193.22433715 114.9781621 194.1409503 114.96691227 195.08533961 C114.9400941 198.14646023 114.97010558 201.20432864 115 204.26538086 C114.99239172 206.46344429 114.98127102 208.66149795 114.96690369 210.85952759 C114.9378893 216.82003202 114.95800271 222.77947806 114.9869194 228.73994517 C115.00880201 234.97135035 114.98552927 241.20258261 114.96704102 247.43397522 C114.94210027 257.89074078 114.94497765 268.34719365 114.96923828 278.80395508 C114.99414529 289.57224444 115.00223767 300.34033099 114.98779297 311.10864258 C114.98690776 311.77290353 114.98602255 312.43716448 114.98511052 313.12155455 C114.98056601 316.45410845 114.97567376 319.78666166 114.97065353 323.11921489 C114.93005008 350.74631885 114.95229452 378.37289766 115 406 C142.39 406 169.78 406 198 406 C198 346.27 198 286.54 198 225 C247.13835494 224.83878786 247.13835494 224.83878786 267.81054688 224.8046875 C282.0553161 224.78100023 296.29999034 224.75323123 310.54467773 224.69824219 C320.92137278 224.65820414 331.29799037 224.632527 341.67476052 224.62364602 C347.16231806 224.61845987 352.64965415 224.60638759 358.13714027 224.57707977 C363.31719708 224.54964177 368.49694422 224.5416115 373.6770668 224.54756927 C375.56385807 224.54648159 377.45066125 224.53869869 379.33738899 224.5231781 C405.24193549 224.32079175 431.36875376 230.26481726 450.75 248.62109375 C460.77685414 259.22240307 466.178414 271.10260526 466.11352539 285.64575195 C466.11370619 286.95506447 466.11370619 286.95506447 466.11389065 288.29082775 C466.11314631 291.10667181 466.10553991 293.92244908 466.09765625 296.73828125 C466.09618535 298.4805905 466.09516555 300.22290018 466.09460449 301.96520996 C466.0893688 308.41431339 466.07540755 314.86340736 466.0625 321.3125 C466.041875 335.729375 466.02125 350.14625 466 365 C433.33 365 400.66 365 367 365 C367 351.47 367 337.94 367 324 C348.85 324 330.7 324 312 324 C312 351.39 312 378.78 312 407 C328.76039063 406.97643433 328.76039063 406.97643433 345.859375 406.95239258 C381.68238156 406.90415966 417.50538827 406.87083709 453.32841891 406.84680401 C458.90042389 406.84305226 464.47242876 406.83916926 470.04443359 406.83520508 C471.15363745 406.83441815 472.26284131 406.83363122 473.40565741 406.83282044 C491.32437041 406.8197955 509.2430543 406.79615784 527.16175008 406.76854161 C545.57202618 406.74040612 563.98228713 406.72380659 582.39258385 406.71773452 C593.73662654 406.7136349 605.08058691 406.70072527 616.42460424 406.6762506 C624.22217816 406.66029268 632.01971003 406.65562218 639.81729907 406.65949587 C644.30426902 406.66140191 648.79109595 406.65865093 653.27803993 406.64238358 C707.95852768 406.45427437 761.43501403 416.10599991 804 453 C804.85207031 453.72960937 805.70414063 454.45921875 806.58203125 455.2109375 C832.94048096 478.28976444 852.35856401 512.66787166 855 548 C856.55827564 583.5764882 851.64885441 619.91074888 828 648 C827.36835937 648.77730469 826.73671875 649.55460938 826.0859375 650.35546875 C816.21645446 661.9807587 803.69827571 671.33703327 790 678 C789.34 678 788.68 678 788 678 C788.65471483 681.04695605 788.65471483 681.04695605 790.72729492 682.03979492 C791.47084229 682.35021729 792.21438965 682.66063965 792.98046875 682.98046875 C793.80812744 683.33568604 794.63578613 683.69090332 795.48852539 684.05688477 C796.82451782 684.61653931 796.82451782 684.61653931 798.1875 685.1875 C819.29291789 694.36662222 840.82145996 707.4110846 855 726 C855.76570312 726.99128906 856.53140625 727.98257813 857.3203125 729.00390625 C872.57551789 749.26251202 880.15297882 771.31366244 885 796 C885.17885742 796.88461914 885.35771484 797.76923828 885.54199219 798.68066406 C886.55743281 806.03990218 886.34717658 813.53497357 886.4050293 820.95239258 C886.42639787 822.99911591 886.46024105 825.04575337 886.50756836 827.09204102 C887.36585125 864.67017035 869.77521401 901.28535381 845 929 C843.74939782 930.45781696 842.49930936 931.91607497 841.25 933.375 C820.51708831 956.79239285 792.51610666 971.9444279 762.375 979.375 C761.41126465 979.61387939 760.4475293 979.85275879 759.45458984 980.09887695 C741.18788233 984.30268445 722.87061802 984.29019286 704.2237089 984.24453239 C700.46287031 984.2375846 696.7020424 984.24242049 692.94120133 984.24568737 C686.36595396 984.24981172 679.79074299 984.24658712 673.21549988 984.23841095 C663.43852376 984.22628748 653.66157034 984.22574428 643.88458808 984.22749493 C627.4341996 984.23011641 610.98382724 984.22346396 594.53344345 984.21146011 C578.25395503 984.19961151 561.97447333 984.19192528 545.69498062 984.18975449 C544.68141209 984.18961701 543.66784356 984.18947953 542.62356084 984.18933788 C537.47580922 984.18866118 532.3280576 984.18805843 527.18030597 984.18748413 C490.75284916 984.18328732 454.3254011 984.16982381 417.89794922 984.15087891 C382.51709032 984.13249959 347.13623382 984.11833748 311.75537109 984.10986328 C310.66408964 984.10960023 309.57280818 984.10933718 308.44845759 984.10906615 C297.48900202 984.10642903 286.52954643 984.10387742 275.57009082 984.10138843 C253.24595601 984.0963165 230.92182135 984.09067399 208.59768677 984.08468628 C207.5713401 984.0844117 206.54499342 984.08413712 205.48754534 984.08385422 C174.03945585 984.07541085 142.59136785 984.06454997 111.14328003 984.05130005 C110.25072543 984.05092493 109.35817082 984.05054982 108.43856911 984.05016333 C72.29237873 984.03493541 36.14618951 984.01714577 0 984 C0 912.39 0 840.78 0 767 C3.997831 768.9989155 6.08102209 770.83649964 9.20631409 773.97253418 C9.71805913 774.48327594 10.22980418 774.99401771 10.75705665 775.52023649 C12.46986036 777.23208793 14.17541493 778.95098303 15.88110352 780.66992188 C17.1079002 781.89891985 18.33514529 783.12747036 19.56280518 784.35560608 C22.20503899 787.00077342 24.84408471 789.64906703 27.4807148 792.29981995 C31.64802908 796.48938704 35.82240773 800.67186677 39.99778748 804.85339355 C46.59941702 811.46640589 53.1963568 818.08407397 59.79127496 824.70377874 C71.60581949 836.56264909 83.42594822 848.41594718 95.25129646 860.26404428 C99.40275829 864.4239243 103.55139446 868.58659641 107.69779789 872.75151825 C110.27490647 875.33925551 112.85403275 877.92497474 115.43367004 880.51019096 C116.63143501 881.71143195 117.82832705 882.91354404 119.02429008 884.11657906 C120.65412751 885.75584284 122.28700438 887.39201801 123.92066956 889.02746582 C124.83450189 889.94481758 125.74833422 890.86216934 126.68985844 891.80731964 C130.75194629 895.66286702 132.96039291 896.25112684 138.45991802 896.26171303 C139.12184529 896.26570909 139.78377256 896.26970515 140.46575823 896.27382231 C142.69947058 896.28485282 144.93293752 896.28158746 147.16667175 896.2784729 C148.77793593 896.28347258 150.38919759 896.28934741 152.00045568 896.29602563 C156.44030417 896.31187935 160.88008948 896.31525926 165.31996286 896.31667423 C170.10320436 896.32035894 174.88641081 896.33550971 179.66963196 896.34928894 C187.96095096 896.3715949 196.25225754 896.38658809 204.54360008 896.39665604 C216.53157998 896.41122321 228.51951666 896.43675447 240.50747124 896.46498732 C259.95573437 896.51049105 279.40400372 896.54709103 298.85229492 896.578125 C317.74781385 896.60829589 336.64331748 896.64266227 355.53881836 896.68261719 C356.71484055 896.6850987 357.89086273 896.6875802 359.10252196 896.69013691 C368.29938309 896.70957591 377.4962437 896.72925875 386.69310415 896.74901867 C431.79538422 896.84586069 476.89767725 896.92142813 522 897 C522 773.25 522 649.5 522 522 C452.7 522 383.4 522 312 522 C312 553.68 312 585.36 312 618 C330.15 618 348.3 618 367 618 C367 604.14 367 590.28 367 576 C399.67 576 432.34 576 466 576 C466.0928125 597.2540625 466.0928125 597.2540625 466.1875 618.9375 C466.21481201 623.37695068 466.24212402 627.81640137 466.27026367 632.39038086 C466.28381348 637.89953613 466.28381348 637.89953613 466.28633118 640.49562073 C466.2908751 642.27156341 466.301292 644.04749809 466.31672668 645.82337952 C466.47683529 665.25193047 465.51950091 685.26170288 452.296875 700.74609375 C435.99216265 716.74578597 413.1279164 717.46353416 391.72265625 717.34057617 C389.63165296 717.33972804 387.54064877 717.34020867 385.449646 717.34190369 C379.8225937 717.3427578 374.19573667 717.32522752 368.5687294 717.30418181 C362.66977196 717.28531671 356.77080912 717.28365687 350.87182617 717.28010559 C339.72336975 717.27081385 328.57500251 717.24623922 317.4265852 717.21605712 C302.34611557 717.17612362 287.26562123 717.16003502 272.185112 717.14255047 C248.45667465 717.11441585 224.72842541 717.05462717 201 717 C201 647.7 201 578.4 201 507 C163.91905999 507.03949324 163.91905999 507.03949324 126.83813477 507.09008789 C119.6151123 507.09460449 119.6151123 507.09460449 116.21812439 507.09544373 C113.87970285 507.09696467 111.54128202 507.10045077 109.2028656 507.10557556 C44.2588375 507.24060902 44.2588375 507.24060902 21.75 485.4375 C6.89912704 470.27818031 0.04770308 447.9416542 0 0 Z M621 521 C621 561.92 621 602.84 621 645 C632.570625 645.0825 644.14125 645.165 656.0625 645.25 C661.49601929 645.30462402 661.49601929 645.30462402 667.03930664 645.36035156 C670.35215771 645.37374813 670.35215771 645.37374813 673.6650238 645.3817749 C675.11441495 645.38782512 676.56378897 645.40169599 678.01304626 645.42230225 C702.84989149 645.75707737 726.0669131 636.40405863 744 619.06640625 C755.00691913 607.2487096 760.40818844 593.14158223 760.2109375 577.14453125 C759.27302771 563.16272796 752.21811349 550.35634489 742 541 C723.39633484 525.79700482 701.56034678 520.28535524 677.93359375 520.609375 C676.46163546 520.61528178 674.98966864 520.61934662 673.5177002 520.62158203 C668.15750241 520.64225674 662.79748638 520.69809842 657.4375 520.75 C639.4009375 520.87375 639.4009375 520.87375 621 521 Z M621 746 C621 796.49 621 846.98 621 899 C634.509375 899.0825 648.01875 899.165 661.9375 899.25 C666.16812256 899.28641602 670.39874512 899.32283203 674.75756836 899.36035156 C678.62390256 899.37374746 678.62390256 899.37374746 682.49024963 899.3817749 C684.18287898 899.38782839 685.87549356 899.40170646 687.56800842 899.42230225 C711.82747342 899.70217746 734.80236481 893.65049259 752.89624023 876.64453125 C767.25501248 862.48818744 775.92974843 843.60947326 776.42456055 823.40161133 C776.50756458 803.98649802 771.73012242 787.00335856 759 772 C758.09121094 770.79537109 758.09121094 770.79537109 757.1640625 769.56640625 C745.00934714 755.15187919 725.19257604 748.1952867 707 746 C704.10249103 745.87086778 701.21077528 745.87310554 698.31079102 745.88647461 C697.03085345 745.88629381 697.03085345 745.88629381 695.72505856 745.88610935 C692.9846472 745.88685102 690.24430531 745.89444503 687.50390625 745.90234375 C685.80334506 745.90381548 684.10278341 745.90483477 682.40222168 745.90539551 C676.12230751 745.91062159 669.84240306 745.92458286 663.5625 745.9375 C642.4940625 745.9684375 642.4940625 745.9684375 621 746 Z " fill="#2D2981" transform="translate(86,91)"/>
<path d="M0 0 C32.67 0 65.34 0 99 0 C99 139.26 99 278.52 99 422 C40.59 422 -17.82 422 -78 422 C-76.16836238 418.33672475 -74.76513559 416.51880724 -71.9296875 413.69921875 C-71.115 412.88646484 -70.3003125 412.07371094 -69.4609375 411.23632812 C-68.18089844 409.9746582 -68.18089844 409.9746582 -66.875 408.6875 C-66.04484375 407.85798828 -65.2146875 407.02847656 -64.359375 406.17382812 C-57.82167521 399.68224063 -51.17331326 393.5574423 -43.76340485 388.06761169 C-23.50103977 372.92377805 -1.1007234 355.02013826 2.99062783 328.69217241 C5.46658445 310.09944647 4.81807708 291.1468392 4.16336402 272.45126969 C3.84155403 262.98077896 3.80380456 253.51444028 3.77712232 244.03928268 C3.72243297 227.15634406 3.45582194 210.28409918 3.04833984 193.40625 C2.65391463 177.04970627 2.36403854 160.69658024 2.20947266 144.3359375 C2.19984892 143.32102175 2.19022519 142.306106 2.18030983 141.26043522 C2.13263926 136.16691938 2.08696862 131.07338794 2.04229069 125.97984505 C1.67129726 83.9774009 0.91293142 41.99484525 0 0 Z " fill="#2D2A81" transform="translate(1015,653)"/>
<path d="M0 0 C10.70610771 10.70610771 16.85476964 23.31837267 17.0625 38.5 C16.92992835 52.50840384 11.96046141 64.34235303 2.32421875 74.48828125 C-9.36037239 85.30061675 -22.2303357 88.67790458 -37.7578125 88.12890625 C-42.94284287 87.82613868 -47.44489376 86.97796083 -52.1875 84.8125 C-53.074375 84.42191406 -53.96125 84.03132812 -54.875 83.62890625 C-67.59714092 77.39152327 -75.09699633 67.74122239 -80.1875 54.8125 C-84.55228084 41.18683802 -83.10437767 26.59408688 -76.71484375 13.8828125 C-69.21493695 1.08155315 -57.97623034 -6.76091119 -43.6875 -10.5625 C-27.34223686 -13.46102015 -13.44333922 -9.22582103 0 0 Z " fill="#2D2981" transform="translate(1096.1875,546.1875)"/>
</svg>
